# xmcd
#
# Track frame offsets:
# 150
# 18219
# 35888
# 52238
# 67998
# 84060
# 101580
# 117191
# 131986
# 155147
# 171604
# 187486
# 211089
# 230793
# 248494
# 265031
# 282479
#
# Disc length: 3969 seconds
#
#
# Revision: 0
# Processed by: cddbd v1.5.2PL0 Copyright (c) Steve Scherf et al.
# Submitted via: FreeRIP 2.944 
#
DISCID=010f7f11
DTITLE=Joao Bosco e Vinicius - ao vivo
DYEAR=1900
DGENRE=Country
TTITLE0=qurero provar que te amo
TTITLE1=querendo te encontrar
TTITLE2=mania de me enganar
TTITLE3=esperança
TTITLE4=magia
TTITLE5=faz de conta
TTITLE6=sofrendo por amor
TTITLE7=magia e mistério
TTITLE8=pout pourri
TTITLE9=não é mais como antes
TTITLE10=ponto e
TTITLE11=pout pourri
TTITLE12=enquanto o inverno não passar
TTITLE13=pout pourri
TTITLE14=olha amor
TTITLE15=pout pourri
TTITLE16=acabou
EXTD=
EXTT0=
EXTT1=
EXTT2=
EXTT3=
EXTT4=
EXTT5=
EXTT6=
EXTT7=
EXTT8=
EXTT9=
EXTT10=
EXTT11=
EXTT12=
EXTT13=
EXTT14=
EXTT15=
EXTT16=
PLAYORDER=
